<svg id="Layer_1" data-name="Layer 1" xmlns="http://www.w3.org/2000/svg" viewBox="0 0 425.28 425.28"><defs><style>.cls-1{fill:#a6285f;}</style></defs><title>dribbble</title><path class="cls-1" d="M212.64,0C95.2,0,0,95.2,0,212.64S95.2,425.28,212.64,425.28s212.64-95.2,212.64-212.64S330.07,0,212.64,0Zm172,197.35a551.08,551.08,0,0,0-113.81,7.55q-6.59-15.77-13.37-30.21c2.82-1.31,5.6-2.64,8.34-4,33.33-16.8,61-38.53,82.59-64.76A171,171,0,0,1,384.6,197.35ZM320,77.4Q289.75,115.88,239.64,139c-3.76-7.06-7.45-13.79-11-20.1a777.87,777.87,0,0,0-49-75.79,174.64,174.64,0,0,1,33-3.14A171.31,171.31,0,0,1,320,77.4ZM90.56,90.56a172.87,172.87,0,0,1,48.82-34.34,723.2,723.2,0,0,1,55,83.41q3.72,6.57,7.59,13.74a400.12,400.12,0,0,1-53.7,12.42A514.85,514.85,0,0,1,44.9,171.57,171.54,171.54,0,0,1,90.56,90.56ZM40,212.64c0-.41,0-.82,0-1.23,7.38.4,16.77.72,27.72.72a546.82,546.82,0,0,0,85.9-6.7,427.81,427.81,0,0,0,66.54-16q5.49,11.63,10.9,24.22a355.62,355.62,0,0,0-72.69,27.89C123,260.1,94.1,284.2,72.38,313.33A171.28,171.28,0,0,1,40,212.64Zm60,130.83C130.37,299,179.34,268,245.89,251.08a629.8,629.8,0,0,1,31.35,121.74A173,173,0,0,1,100,343.47Zm234.72-8.76a174.37,174.37,0,0,1-20.29,17.4A675.08,675.08,0,0,0,285.49,243a517.34,517.34,0,0,1,98-5.64A171.36,171.36,0,0,1,334.71,334.71Z"/></svg>