<svg height="512pt" viewBox="0 0 512 512" width="512pt" xmlns="http://www.w3.org/2000/svg"><path d="m512 368v-186.398438l-256-113.824218-256 113.824218v186.398438zm0 0" fill="#bcaaa4"/><path d="m448 416h-384v-384c0-17.671875 14.328125-32 32-32h320c17.671875 0 32 14.328125 32 32zm0 0" fill="#ffc32c"/><path d="m262.398438 48.160156c-38.496094-1.855468-75.785157 13.710938-101.539063 42.386719-25.75 28.679687-37.230469 67.421875-31.257813 105.5 8.613282 53.15625 49.402344 95.328125 102.238282 105.714844 7.914062 1.472656 15.949218 2.210937 24 2.207031 17.117187.015625 34.066406-3.382812 49.855468-10 4.269532-1.832031 7.53125-5.425781 8.941407-9.851562 1.410156-4.425782.828125-9.242188-1.597657-13.207032-4.078124-6.765625-12.519531-9.496094-19.792968-6.398437-24.488282 10.277343-52.136719 9.980469-76.398438-.820313-24.265625-10.800781-42.988281-31.144531-51.742187-56.21875-11.191407-33.121094-3.675781-69.699218 19.664062-95.730468 19.292969-21.445313 47.21875-33.0625 76.03125-31.628907 51.921875 4.25 91.734375 47.902344 91.199219 100v11.886719c0 8.835938-7.164062 16-16 16s-16-7.164062-16-16v-12.976562c.601562-35.375-26.792969-64.9375-62.113281-67.023438-19.9375-.558594-39.003907 8.195312-51.574219 23.683594-12.574219 15.484375-17.226562 35.941406-12.585938 55.339844 5.292969 22.113281 21.953126 39.734374 43.734376 46.257812 21.78125 6.527344 45.386718.964844 61.964843-14.59375 10.78125 13.054688 27.691407 19.390625 44.398438 16.640625 23.691406-4.640625 40.632812-25.621094 40.175781-49.761719v-9.453125c1.160156-69.382812-52.355469-127.457031-121.601562-131.953125zm-6.398438 159.839844c-17.671875 0-32-14.328125-32-32s14.328125-32 32-32 32 14.328125 32 32-14.328125 32-32 32zm0 0" fill="#fff"/><path d="m256 368-256-161.601562v273.601562c0 17.671875 14.328125 32 32 32h448c17.671875 0 32-14.328125 32-32v-273.601562zm0 0" fill="#eee"/><g fill="#e0e0e0"><path d="m194.398438 328.960938-170.398438 181.917968c-11.105469-2.796875-19.847656-11.355468-22.878906-22.398437l165.597656-176.800781zm0 0"/><path d="m510.878906 488.480469c-3.03125 11.042969-11.773437 19.601562-22.878906 22.398437l-170.398438-181.917968 27.679688-17.28125zm0 0"/></g></svg>