<svg id="Layer_1" data-name="Layer 1" xmlns="http://www.w3.org/2000/svg" viewBox="0 0 512 512"><defs><style>.cls-1{fill:#bcaaa4;}.cls-2{fill:#ffc32c;}.cls-3{fill:#fff;}.cls-4{fill:#eee;}.cls-5{fill:#e0e0e0;}</style></defs><title>email-2</title><path class="cls-1" d="M512,368V181.6L256,67.78,0,181.6V368Z"/><path class="cls-2" d="M448,416H64V32A32,32,0,0,1,96,0H416a32,32,0,0,1,32,32Z"/><path class="cls-3" d="M262.4,48.16a128,128,0,0,0-30.56,253.6,131.4,131.4,0,0,0,24,2.21,128.74,128.74,0,0,0,49.86-10A16,16,0,0,0,313,270.91a15.85,15.85,0,0,0-19.79-6.4A96,96,0,1,1,260.8,80.11a99.31,99.31,0,0,1,91.2,100V192a16,16,0,0,1-32,0V179a66,66,0,0,0-62.11-67,64,64,0,1,0,41.54,110.69,47.56,47.56,0,0,0,44.39,16.64A49.74,49.74,0,0,0,384,189.57v-9.46A130.05,130.05,0,0,0,262.4,48.16ZM256,208a32,32,0,1,1,32-32A32,32,0,0,1,256,208Z"/><path class="cls-4" d="M256,368,0,206.4V480a32,32,0,0,0,32,32H480a32,32,0,0,0,32-32V206.4Z"/><path class="cls-5" d="M194.4,329,24,510.88a31.78,31.78,0,0,1-22.88-22.4l165.6-176.8Z"/><path class="cls-5" d="M510.88,488.48A31.78,31.78,0,0,1,488,510.88L317.6,329l27.68-17.28Z"/></svg>