<svg id="Layer_1" data-name="Layer 1" xmlns="http://www.w3.org/2000/svg" viewBox="0 0 512 512"><defs><style>.cls-1{fill:#ffd24d;}.cls-2{fill:#f14742;}.cls-3{fill:#1b4145;}</style></defs><title>phone-receiver</title><path class="cls-1" d="M512,129C512,57.77,439.26,0,349.53,0S187.07,57.77,187.07,129c0,63.66,58.05,116.55,134.41,127.11h-.23a80.49,80.49,0,0,1-22.19,69.73c40.35,0,73.66-30.39,78.72-69.73h-.23C453.92,245.6,512,192.7,512,129Z" transform="translate(0)"/><circle class="cls-2" cx="292.26" cy="129.02" r="11.38"/><circle class="cls-2" cx="406.8" cy="129.02" r="11.38"/><circle class="cls-2" cx="349.54" cy="129.02" r="11.38"/><path class="cls-3" d="M350,411.75a651.43,651.43,0,0,0-50.93-45.28L260.7,404.84,107.16,251.3l38.37-38.37A649,649,0,0,0,100.25,162a650.36,650.36,0,0,0-50.93-45.29S3.34,159,.25,192.56c-4.14,44.9,43.4,126.54,118,201.17s156.27,122.16,201.17,118c33.55-3.09,75.85-49.07,75.85-49.07A650.36,650.36,0,0,0,350,411.75Z" transform="translate(0)"/></svg>