<svg id="Layer_1" data-name="Layer 1" xmlns="http://www.w3.org/2000/svg" viewBox="0 0 410.15 341.17"><defs><style>.cls-1{fill:#76a9ea;}</style></defs><title>twitter</title><path class="cls-1" d="M403.63,74.18a162.51,162.51,0,0,1-28.28,9.54,88.22,88.22,0,0,0,23.28-37.07h0a4.63,4.63,0,0,0-6.77-5.39h0a163.09,163.09,0,0,1-43.23,17.87,11.15,11.15,0,0,1-2.7.33,11.41,11.41,0,0,1-7.57-2.89,88.44,88.44,0,0,0-58.51-22.08,94.59,94.59,0,0,0-28,4.33,85.65,85.65,0,0,0-57.73,61.72A94.23,94.23,0,0,0,192,133.1a3.15,3.15,0,0,1-.8,2.48,3.27,3.27,0,0,1-2.43,1.11l-.32,0C125.69,130.84,69.09,100.6,29.09,51.53h0a4.63,4.63,0,0,0-7.58.59h0A88.54,88.54,0,0,0,35.9,159.61a78.93,78.93,0,0,1-20.17-7.81h0a4.63,4.63,0,0,0-6.87,4h0a88.53,88.53,0,0,0,51.65,81.57l-1.89,0A79.82,79.82,0,0,1,43.72,236h0a4.62,4.62,0,0,0-5.27,5.95h0a88.64,88.64,0,0,0,70,60.28,163.16,163.16,0,0,1-91.39,27.75H6.83A6.79,6.79,0,0,0,.21,335a7,7,0,0,0,3.36,7.74,242.7,242.7,0,0,0,122,32.88c37.49,0,72.55-7.44,104.22-22.11A230.07,230.07,0,0,0,306,296.41a250.43,250.43,0,0,0,46.69-78.2,247.06,247.06,0,0,0,15.87-85.59v-1.34a15,15,0,0,1,5.63-11.71A174.51,174.51,0,0,0,409.35,81h0a4.62,4.62,0,0,0-5.72-6.79Z" transform="translate(0 -34.49)"/></svg>